<mxfile host="65bd71144e">
    <diagram id="mxghHiEPWMTQu_b581rl" name="flowchart">
        <mxGraphModel dx="879" dy="559" grid="1" gridSize="10" guides="1" tooltips="1" connect="1" arrows="1" fold="1" page="1" pageScale="1" pageWidth="3000" pageHeight="3000" math="0" shadow="0">
            <root>
                <mxCell id="0"/>
                <mxCell id="1" parent="0"/>
                <mxCell id="8" style="edgeStyle=orthogonalEdgeStyle;rounded=0;orthogonalLoop=1;jettySize=auto;html=1;entryX=0.5;entryY=0;entryDx=0;entryDy=0;fillColor=#008a00;strokeColor=#005700;strokeWidth=2;" parent="1" source="2" target="3" edge="1">
                    <mxGeometry relative="1" as="geometry"/>
                </mxCell>
                <mxCell id="2" value="Show transaction feed screen" style="rounded=1;whiteSpace=wrap;html=1;fillColor=#008a00;strokeColor=#005700;fontColor=#ffffff;" parent="1" vertex="1">
                    <mxGeometry x="190" y="120" width="200" height="60" as="geometry"/>
                </mxCell>
                <mxCell id="9" style="edgeStyle=orthogonalEdgeStyle;rounded=0;orthogonalLoop=1;jettySize=auto;html=1;entryX=0.5;entryY=0;entryDx=0;entryDy=0;fillColor=#008a00;strokeColor=#005700;strokeWidth=2;" parent="1" source="3" target="4" edge="1">
                    <mxGeometry relative="1" as="geometry"/>
                </mxCell>
                <mxCell id="3" value="Fetch transaction feed from remote" style="rounded=1;whiteSpace=wrap;html=1;fillColor=#008a00;strokeColor=#005700;fontColor=#ffffff;" parent="1" vertex="1">
                    <mxGeometry x="180" y="220" width="220" height="60" as="geometry"/>
                </mxCell>
                <mxCell id="10" style="edgeStyle=orthogonalEdgeStyle;rounded=0;orthogonalLoop=1;jettySize=auto;html=1;entryX=0;entryY=0.5;entryDx=0;entryDy=0;fillColor=#008a00;strokeColor=#005700;strokeWidth=2;" parent="1" source="4" target="7" edge="1">
                    <mxGeometry relative="1" as="geometry"/>
                </mxCell>
                <mxCell id="14" value="&lt;font style=&quot;font-size: 16px&quot; color=&quot;#cce5ff&quot;&gt;No&lt;/font&gt;" style="edgeLabel;html=1;align=center;verticalAlign=middle;resizable=0;points=[];fontColor=#005700;fontStyle=1" parent="10" vertex="1" connectable="0">
                    <mxGeometry x="-0.1806" relative="1" as="geometry">
                        <mxPoint x="-2" as="offset"/>
                    </mxGeometry>
                </mxCell>
                <mxCell id="11" value="&lt;font style=&quot;font-size: 16px&quot; color=&quot;#cce5ff&quot;&gt;&lt;b&gt;Yes&lt;/b&gt;&lt;/font&gt;" style="edgeStyle=orthogonalEdgeStyle;rounded=0;orthogonalLoop=1;jettySize=auto;html=1;entryX=0.5;entryY=0;entryDx=0;entryDy=0;fillColor=#008a00;strokeColor=#005700;strokeWidth=2;" parent="1" source="4" target="6" edge="1">
                    <mxGeometry relative="1" as="geometry">
                        <Array as="points">
                            <mxPoint x="290" y="420"/>
                            <mxPoint x="290" y="420"/>
                        </Array>
                        <mxPoint as="offset"/>
                    </mxGeometry>
                </mxCell>
                <mxCell id="4" value="Success?" style="rhombus;whiteSpace=wrap;html=1;fillColor=#008a00;strokeColor=#005700;fontColor=#ffffff;" parent="1" vertex="1">
                    <mxGeometry x="235" y="310" width="110" height="70" as="geometry"/>
                </mxCell>
                <mxCell id="5" value="Display transaction feed" style="rounded=1;whiteSpace=wrap;html=1;fillColor=#008a00;strokeColor=#005700;fontColor=#ffffff;" parent="1" vertex="1">
                    <mxGeometry x="205" y="600" width="170" height="60" as="geometry"/>
                </mxCell>
                <mxCell id="12" style="edgeStyle=orthogonalEdgeStyle;rounded=0;orthogonalLoop=1;jettySize=auto;html=1;exitX=0.5;exitY=1;exitDx=0;exitDy=0;fillColor=#008a00;strokeColor=#005700;strokeWidth=2;" parent="1" source="6" target="5" edge="1">
                    <mxGeometry relative="1" as="geometry"/>
                </mxCell>
                <mxCell id="6" value="Cache transaction feed" style="rounded=1;whiteSpace=wrap;html=1;fillColor=#008a00;strokeColor=#005700;fontColor=#ffffff;" parent="1" vertex="1">
                    <mxGeometry x="215" y="460" width="150" height="60" as="geometry"/>
                </mxCell>
                <mxCell id="20" style="edgeStyle=orthogonalEdgeStyle;rounded=0;orthogonalLoop=1;jettySize=auto;html=1;entryX=0.5;entryY=0;entryDx=0;entryDy=0;fontColor=#005700;strokeWidth=2;fillColor=#008a00;strokeColor=#005700;" parent="1" source="7" target="19" edge="1">
                    <mxGeometry relative="1" as="geometry"/>
                </mxCell>
                <mxCell id="7" value="Load transaction feed from cache" style="rounded=1;whiteSpace=wrap;html=1;fillColor=#008a00;strokeColor=#005700;fontColor=#ffffff;" parent="1" vertex="1">
                    <mxGeometry x="462.5" y="315" width="215" height="60" as="geometry"/>
                </mxCell>
                <mxCell id="22" style="edgeStyle=orthogonalEdgeStyle;rounded=0;orthogonalLoop=1;jettySize=auto;html=1;entryX=0.5;entryY=0;entryDx=0;entryDy=0;fontColor=#005700;strokeWidth=2;fillColor=#008a00;strokeColor=#005700;" parent="1" source="19" target="21" edge="1">
                    <mxGeometry relative="1" as="geometry"/>
                </mxCell>
                <mxCell id="23" value="&lt;b&gt;&lt;font style=&quot;font-size: 16px&quot; color=&quot;#cce5ff&quot;&gt;No&lt;/font&gt;&lt;/b&gt;" style="edgeLabel;html=1;align=center;verticalAlign=middle;resizable=0;points=[];fontColor=#005700;" parent="22" vertex="1" connectable="0">
                    <mxGeometry x="-0.2" y="2" relative="1" as="geometry">
                        <mxPoint as="offset"/>
                    </mxGeometry>
                </mxCell>
                <mxCell id="25" value="&lt;font style=&quot;font-size: 16px&quot; color=&quot;#cce5ff&quot;&gt;&lt;b&gt;Yes&lt;/b&gt;&lt;/font&gt;" style="edgeStyle=orthogonalEdgeStyle;rounded=0;orthogonalLoop=1;jettySize=auto;html=1;entryX=1;entryY=0.5;entryDx=0;entryDy=0;fontColor=#005700;strokeWidth=2;fillColor=#008a00;strokeColor=#005700;exitX=0;exitY=0.5;exitDx=0;exitDy=0;" parent="1" source="19" target="5" edge="1">
                    <mxGeometry x="0.069" relative="1" as="geometry">
                        <Array as="points">
                            <mxPoint x="430" y="495"/>
                            <mxPoint x="430" y="630"/>
                        </Array>
                        <mxPoint as="offset"/>
                    </mxGeometry>
                </mxCell>
                <mxCell id="19" value="Success?" style="rhombus;whiteSpace=wrap;html=1;fillColor=#008a00;strokeColor=#005700;fontColor=#ffffff;" parent="1" vertex="1">
                    <mxGeometry x="515" y="460" width="110" height="70" as="geometry"/>
                </mxCell>
                <mxCell id="21" value="Display usability message" style="rounded=1;whiteSpace=wrap;html=1;fillColor=#008a00;strokeColor=#005700;fontColor=#ffffff;" parent="1" vertex="1">
                    <mxGeometry x="480" y="600" width="180" height="60" as="geometry"/>
                </mxCell>
            </root>
        </mxGraphModel>
    </diagram>
    <diagram id="vgG7ClwbKQdzK1_dYDqB" name="architecture">
        <mxGraphModel dx="879" dy="559" grid="1" gridSize="10" guides="1" tooltips="1" connect="1" arrows="1" fold="1" page="1" pageScale="1" pageWidth="3000" pageHeight="3000" math="0" shadow="0">
            <root>
                <mxCell id="MvvuSBQiMxdUmd0QztgH-0"/>
                <mxCell id="MvvuSBQiMxdUmd0QztgH-1" parent="MvvuSBQiMxdUmd0QztgH-0"/>
                <mxCell id="MvvuSBQiMxdUmd0QztgH-12" style="edgeStyle=orthogonalEdgeStyle;rounded=0;orthogonalLoop=1;jettySize=auto;html=1;exitX=0.25;exitY=1;exitDx=0;exitDy=0;fontColor=#005700;strokeWidth=2;strokeColor=#BD7000;" parent="MvvuSBQiMxdUmd0QztgH-1" source="MvvuSBQiMxdUmd0QztgH-2" target="MvvuSBQiMxdUmd0QztgH-3" edge="1">
                    <mxGeometry relative="1" as="geometry"/>
                </mxCell>
                <mxCell id="MvvuSBQiMxdUmd0QztgH-13" style="edgeStyle=orthogonalEdgeStyle;rounded=0;orthogonalLoop=1;jettySize=auto;html=1;exitX=0.75;exitY=1;exitDx=0;exitDy=0;entryX=0.5;entryY=0;entryDx=0;entryDy=0;fontColor=#005700;strokeWidth=2;strokeColor=#BD7000;" parent="MvvuSBQiMxdUmd0QztgH-1" source="MvvuSBQiMxdUmd0QztgH-2" target="MvvuSBQiMxdUmd0QztgH-4" edge="1">
                    <mxGeometry relative="1" as="geometry"/>
                </mxCell>
                <mxCell id="MvvuSBQiMxdUmd0QztgH-14" style="edgeStyle=orthogonalEdgeStyle;rounded=0;orthogonalLoop=1;jettySize=auto;html=1;exitX=0.5;exitY=1;exitDx=0;exitDy=0;fontColor=#005700;strokeWidth=2;dashed=1;endArrow=block;endFill=0;strokeColor=#BD7000;" parent="MvvuSBQiMxdUmd0QztgH-1" source="MvvuSBQiMxdUmd0QztgH-2" target="MvvuSBQiMxdUmd0QztgH-7" edge="1">
                    <mxGeometry relative="1" as="geometry"/>
                </mxCell>
                <mxCell id="MvvuSBQiMxdUmd0QztgH-2" value="&lt;font color=&quot;#bd7000&quot;&gt;&lt;b&gt;RemoteWithLocalFallbackFeedLoader&lt;/b&gt;&lt;/font&gt;" style="whiteSpace=wrap;html=1;fontColor=#000000;strokeWidth=2;fillColor=none;strokeColor=#BD7000;" parent="MvvuSBQiMxdUmd0QztgH-1" vertex="1">
                    <mxGeometry x="240" y="180" width="240" height="40" as="geometry"/>
                </mxCell>
                <mxCell id="MvvuSBQiMxdUmd0QztgH-17" style="edgeStyle=orthogonalEdgeStyle;rounded=0;orthogonalLoop=1;jettySize=auto;html=1;exitX=0.5;exitY=1;exitDx=0;exitDy=0;entryX=0;entryY=0.5;entryDx=0;entryDy=0;dashed=1;fontColor=#005700;endArrow=block;endFill=0;strokeWidth=2;strokeColor=#3399FF;" parent="MvvuSBQiMxdUmd0QztgH-1" source="MvvuSBQiMxdUmd0QztgH-3" target="MvvuSBQiMxdUmd0QztgH-7" edge="1">
                    <mxGeometry relative="1" as="geometry"/>
                </mxCell>
                <mxCell id="MvvuSBQiMxdUmd0QztgH-3" value="&lt;b&gt;&lt;font color=&quot;#3399ff&quot;&gt;RemoteFeedLoader&lt;/font&gt;&lt;/b&gt;" style="whiteSpace=wrap;html=1;fontColor=#005700;strokeWidth=2;strokeColor=#3399FF;" parent="MvvuSBQiMxdUmd0QztgH-1" vertex="1">
                    <mxGeometry x="200" y="280" width="130" height="40" as="geometry"/>
                </mxCell>
                <mxCell id="MvvuSBQiMxdUmd0QztgH-16" style="edgeStyle=orthogonalEdgeStyle;rounded=0;orthogonalLoop=1;jettySize=auto;html=1;entryX=1;entryY=0.5;entryDx=0;entryDy=0;dashed=1;fontColor=#005700;endArrow=block;endFill=0;strokeWidth=2;strokeColor=#FF0080;" parent="MvvuSBQiMxdUmd0QztgH-1" source="MvvuSBQiMxdUmd0QztgH-4" target="MvvuSBQiMxdUmd0QztgH-7" edge="1">
                    <mxGeometry relative="1" as="geometry"/>
                </mxCell>
                <mxCell id="MvvuSBQiMxdUmd0QztgH-4" value="&lt;b&gt;&lt;font color=&quot;#ff0080&quot;&gt;LocalFeedLoader&lt;/font&gt;&lt;/b&gt;" style="whiteSpace=wrap;html=1;fontColor=#005700;strokeWidth=2;strokeColor=#FF0080;" parent="MvvuSBQiMxdUmd0QztgH-1" vertex="1">
                    <mxGeometry x="400" y="280" width="120" height="40" as="geometry"/>
                </mxCell>
                <mxCell id="MvvuSBQiMxdUmd0QztgH-7" value="&lt;b&gt;&lt;font color=&quot;#ff0000&quot;&gt;&amp;lt;FeedLoader&amp;gt;&lt;/font&gt;&lt;/b&gt;" style="whiteSpace=wrap;html=1;fontColor=#ffffff;strokeWidth=2;fillColor=none;strokeColor=#FF0000;" parent="MvvuSBQiMxdUmd0QztgH-1" vertex="1">
                    <mxGeometry x="300" y="380" width="120" height="40" as="geometry"/>
                </mxCell>
                <mxCell id="MvvuSBQiMxdUmd0QztgH-11" style="edgeStyle=orthogonalEdgeStyle;rounded=0;orthogonalLoop=1;jettySize=auto;html=1;fontColor=#005700;strokeWidth=2;" parent="MvvuSBQiMxdUmd0QztgH-1" source="MvvuSBQiMxdUmd0QztgH-8" target="MvvuSBQiMxdUmd0QztgH-7" edge="1">
                    <mxGeometry relative="1" as="geometry"/>
                </mxCell>
                <mxCell id="MvvuSBQiMxdUmd0QztgH-15" style="edgeStyle=orthogonalEdgeStyle;rounded=0;orthogonalLoop=1;jettySize=auto;html=1;exitX=0.5;exitY=1;exitDx=0;exitDy=0;entryX=0.5;entryY=0;entryDx=0;entryDy=0;fontColor=#005700;strokeWidth=2;endArrow=block;endFill=0;strokeColor=#FFFF00;" parent="MvvuSBQiMxdUmd0QztgH-1" source="MvvuSBQiMxdUmd0QztgH-8" target="MvvuSBQiMxdUmd0QztgH-9" edge="1">
                    <mxGeometry relative="1" as="geometry"/>
                </mxCell>
                <mxCell id="MvvuSBQiMxdUmd0QztgH-23" value="" style="edgeStyle=orthogonalEdgeStyle;rounded=0;orthogonalLoop=1;jettySize=auto;html=1;dashed=1;fontColor=#005700;endArrow=block;endFill=0;strokeWidth=2;strokeColor=#FFFF00;" parent="MvvuSBQiMxdUmd0QztgH-1" source="MvvuSBQiMxdUmd0QztgH-8" target="MvvuSBQiMxdUmd0QztgH-7" edge="1">
                    <mxGeometry relative="1" as="geometry"/>
                </mxCell>
                <mxCell id="MvvuSBQiMxdUmd0QztgH-8" value="&lt;b&gt;&lt;font color=&quot;#ffff00&quot;&gt;FeedViewController&lt;/font&gt;&lt;/b&gt;" style="whiteSpace=wrap;html=1;fontColor=#005700;strokeWidth=2;strokeColor=#FFFF00;" parent="MvvuSBQiMxdUmd0QztgH-1" vertex="1">
                    <mxGeometry x="280" y="460" width="160" height="40" as="geometry"/>
                </mxCell>
                <mxCell id="MvvuSBQiMxdUmd0QztgH-9" value="&lt;b&gt;&lt;font color=&quot;#00994d&quot;&gt;UIViewController&lt;/font&gt;&lt;/b&gt;" style="whiteSpace=wrap;html=1;fontColor=#005700;strokeWidth=2;strokeColor=#00994D;" parent="MvvuSBQiMxdUmd0QztgH-1" vertex="1">
                    <mxGeometry x="295" y="540" width="130" height="40" as="geometry"/>
                </mxCell>
                <mxCell id="MvvuSBQiMxdUmd0QztgH-18" style="edgeStyle=orthogonalEdgeStyle;rounded=0;orthogonalLoop=1;jettySize=auto;html=1;exitX=0;exitY=0.5;exitDx=0;exitDy=0;entryX=1;entryY=0.5;entryDx=0;entryDy=0;dashed=1;fontColor=#005700;endArrow=block;endFill=0;strokeWidth=2;strokeColor=#9933FF;" parent="MvvuSBQiMxdUmd0QztgH-1" source="MvvuSBQiMxdUmd0QztgH-10" target="MvvuSBQiMxdUmd0QztgH-2" edge="1">
                    <mxGeometry relative="1" as="geometry"/>
                </mxCell>
                <mxCell id="MvvuSBQiMxdUmd0QztgH-19" style="edgeStyle=orthogonalEdgeStyle;rounded=0;orthogonalLoop=1;jettySize=auto;html=1;exitX=0.5;exitY=0;exitDx=0;exitDy=0;entryX=0;entryY=0.5;entryDx=0;entryDy=0;dashed=1;fontColor=#005700;endArrow=block;endFill=0;strokeWidth=2;strokeColor=#9933FF;" parent="MvvuSBQiMxdUmd0QztgH-1" source="MvvuSBQiMxdUmd0QztgH-10" target="MvvuSBQiMxdUmd0QztgH-3" edge="1">
                    <mxGeometry relative="1" as="geometry"/>
                </mxCell>
                <mxCell id="MvvuSBQiMxdUmd0QztgH-20" style="edgeStyle=orthogonalEdgeStyle;rounded=0;orthogonalLoop=1;jettySize=auto;html=1;exitX=0.25;exitY=1;exitDx=0;exitDy=0;entryX=1;entryY=0.5;entryDx=0;entryDy=0;dashed=1;fontColor=#005700;endArrow=block;endFill=0;strokeWidth=2;strokeColor=#9933FF;" parent="MvvuSBQiMxdUmd0QztgH-1" source="MvvuSBQiMxdUmd0QztgH-10" target="MvvuSBQiMxdUmd0QztgH-4" edge="1">
                    <mxGeometry relative="1" as="geometry"/>
                </mxCell>
                <mxCell id="MvvuSBQiMxdUmd0QztgH-21" style="edgeStyle=orthogonalEdgeStyle;rounded=0;orthogonalLoop=1;jettySize=auto;html=1;exitX=0.5;exitY=1;exitDx=0;exitDy=0;entryX=1;entryY=0.5;entryDx=0;entryDy=0;dashed=1;fontColor=#005700;endArrow=block;endFill=0;strokeWidth=2;strokeColor=#9933FF;" parent="MvvuSBQiMxdUmd0QztgH-1" source="MvvuSBQiMxdUmd0QztgH-10" target="MvvuSBQiMxdUmd0QztgH-8" edge="1">
                    <mxGeometry relative="1" as="geometry"/>
                </mxCell>
                <mxCell id="MvvuSBQiMxdUmd0QztgH-10" value="&lt;b&gt;&lt;font color=&quot;#9933ff&quot;&gt;Feed&lt;br&gt;Assembler/Builder/Factory&lt;/font&gt;&lt;/b&gt;" style="whiteSpace=wrap;html=1;fontColor=#005700;strokeWidth=2;strokeColor=#9933FF;" parent="MvvuSBQiMxdUmd0QztgH-1" vertex="1">
                    <mxGeometry x="610" y="170" width="180" height="60" as="geometry"/>
                </mxCell>
            </root>
        </mxGraphModel>
    </diagram>
</mxfile>